<svg xmlns="http://www.w3.org/2000/svg" width="24" height="24" viewBox="0 0 24 24" fill="none" stroke="#1E40AF" stroke-width="2" stroke-linecap="round" stroke-linejoin="round">
  <path d="M12 22a10 10 0 1 0 0-20 10 10 0 0 0 0 20Z"/>
  <path d="M5.3 10.8a10 10 0 0 0 0 2.4"/>
  <path d="M5.3 10.8a10 10 0 0 0 0 2.4"/>
  <path d="M9 18.7a10 10 0 0 0 6 0"/>
  <path d="M9 5.3a10 10 0 0 1 6 0"/>
  <path d="M18.7 9a10 10 0 0 0 0 6"/>
  <path d="M16 7a4 4 0 1 1-8 0 4 4 0 0 1 8 0Z"/>
  <path d="M16 17a4 4 0 1 1-8 0 4 4 0 0 1 8 0Z"/>
</svg>